<svg width="89" height="56" viewBox="0 0 89 56" fill="none" xmlns="http://www.w3.org/2000/svg">
<g id="Evenko_Black CMYK">
<g id="Group">
<path id="Vector" d="M36.8552 0C33.1494 0.00692555 30.0428 3.23423 30.0356 7.07578V42.712C30.0428 46.5589 33.1494 49.7814 36.8552 49.7878C40.5609 49.7809 43.6685 46.5589 43.6752 42.712V7.07578C43.6685 3.23476 40.5609 0.00692555 36.8552 0ZM40.8598 31.8906C40.8598 31.9811 40.8413 32.0653 40.7822 32.1276C40.7227 32.1889 40.641 32.2086 40.5543 32.2086H35.115C35.0498 32.2086 35.0226 32.223 35.0113 32.2352C34.9994 32.247 34.9856 32.2752 34.9856 32.3434V33.0402C34.9876 34.095 35.8395 34.9788 36.8557 34.9804C37.5766 34.9751 38.106 34.7471 38.5116 33.916C38.564 33.8068 38.6554 33.7301 38.7638 33.7301C38.83 33.7301 40.3191 33.7322 40.4516 33.7322C40.6159 33.7322 40.7088 33.8936 40.7083 34.0029C40.7057 34.095 40.6482 34.3262 40.5224 34.6464C40.3961 34.9612 40.202 35.3432 39.9242 35.674C39.3029 36.4135 38.3586 36.9691 36.8618 36.9691H36.8557C35.6413 36.9691 34.638 36.5669 33.9396 35.8712C33.2413 35.1754 32.8516 34.1898 32.8521 33.0397V30.1038C32.8526 28.2472 34.4115 26.177 36.8557 26.1754C39.3009 26.177 40.8598 28.2472 40.8603 30.1038V31.8906H40.8598Z" fill="white"/>
<path id="Vector_2" d="M36.8554 28.1621C35.5656 28.1621 34.991 29.2702 34.9854 30.3474C34.9854 30.415 34.9997 30.4438 35.011 30.4555C35.0223 30.4678 35.0495 30.4822 35.1147 30.4822H38.5956C38.6603 30.4822 38.688 30.4678 38.6993 30.4555C38.7112 30.4433 38.725 30.4156 38.7255 30.3474C38.7209 29.2729 38.1063 28.1648 36.8549 28.1621H36.8554Z" fill="white"/>
<path id="Vector_3" d="M51.8735 12.4243C48.1682 12.4312 45.0611 15.658 45.054 19.5001V48.9241C45.0611 52.7704 48.1682 55.9935 51.8735 55.9999C55.5793 55.993 58.6868 52.7704 58.6935 48.9241V19.5001C58.6863 15.6591 55.5787 12.4312 51.8735 12.4243ZM55.8766 36.4267C55.8766 36.5167 55.8586 36.6009 55.7995 36.6627C55.7405 36.7239 55.6588 36.7436 55.5716 36.7436H54.0481C53.9474 36.7436 53.8524 36.7016 53.8057 36.6424C53.7585 36.5833 53.7431 36.5082 53.7431 36.4267V30.3301C53.7415 29.2752 52.8891 28.3904 51.873 28.3888C50.8568 28.3866 50.0049 29.2752 50.0029 30.3301V36.4267C50.0029 36.5082 49.9875 36.5833 49.9402 36.6424C49.8935 36.7016 49.7985 36.7436 49.6979 36.7436H48.1744C48.0871 36.7436 48.0059 36.7245 47.9464 36.6627C47.8873 36.6014 47.8694 36.5167 47.8694 36.4267V30.3301C47.8694 29.1799 48.2581 28.1943 48.9559 27.4991C49.6537 26.8034 50.6786 26.4006 51.8694 26.4006C53.0601 26.4006 54.0917 26.8034 54.7895 27.4991C55.4868 28.1943 55.8766 29.1804 55.876 30.3301V36.4267H55.8766Z" fill="white"/>
<path id="Vector_4" d="M6.81405 28.2417C5.54987 28.2417 4.98709 29.3279 4.98145 30.3833C4.98145 30.4499 4.99531 30.4776 5.00661 30.4893C5.01739 30.501 5.0446 30.5154 5.10827 30.5154H8.51932C8.58299 30.5154 8.6102 30.501 8.62099 30.4893C8.6328 30.4776 8.64615 30.4499 8.64666 30.3833C8.64255 29.3306 8.03973 28.2444 6.81354 28.2417H6.81405Z" fill="white"/>
<path id="Vector_5" d="M6.81952 18.6367C3.11425 18.6431 0.00718871 21.871 0 25.7125V33.3066C0.00718871 37.153 3.11425 40.376 6.81952 40.3824C10.5258 40.3755 13.6334 37.153 13.6395 33.3066V25.7125C13.6334 21.8715 10.5258 18.6431 6.81952 18.6367ZM10.7389 31.896C10.7389 31.9844 10.7204 32.0675 10.6629 32.1282C10.6049 32.1884 10.5248 32.2076 10.4395 32.2076H5.10912C5.04493 32.2076 5.01823 32.2215 5.00745 32.2337C4.99615 32.2449 4.9828 32.2731 4.98229 32.3392V33.0222C4.98383 34.0562 5.81926 34.9219 6.8149 34.9235C7.52144 34.9182 8.04006 34.6949 8.438 33.8804C8.48935 33.7733 8.5787 33.6982 8.68499 33.6982C8.74969 33.6982 10.209 33.7003 10.3394 33.7003C10.5006 33.7003 10.5915 33.858 10.591 33.9656C10.5885 34.0557 10.532 34.2826 10.4087 34.5964C10.285 34.9048 10.0945 35.2793 9.82234 35.6033C9.21336 36.3278 8.28807 36.8722 6.82106 36.8722H6.8149C5.62465 36.8722 4.64134 36.4785 3.95738 35.7961C3.27292 35.1142 2.89089 34.1484 2.8914 33.0216V30.1443C2.89191 28.3245 4.41952 26.2958 6.8149 26.2942C9.2113 26.2958 10.7389 28.3245 10.7394 30.1443V31.8954L10.7389 31.896Z" fill="white"/>
<path id="Vector_6" d="M21.8373 12.3374C18.1321 12.3443 15.025 15.5716 15.0178 19.4132V33.3937C15.025 37.2406 18.1321 40.4631 21.8373 40.4695C25.5436 40.4626 28.6507 37.2406 28.6574 33.3937V19.4132C28.6507 15.5716 25.5436 12.3438 21.8373 12.3374ZM26.49 26.8922C26.4027 27.1309 22.7637 36.4447 22.7221 36.5571C22.6805 36.6695 22.5572 36.7436 22.4545 36.7436H21.2222C21.12 36.7436 20.9968 36.6695 20.9547 36.5571C20.9131 36.4447 17.274 27.1309 17.1868 26.8922C17.0692 26.5715 17.1883 26.4005 17.4425 26.4005H19.0753C19.2135 26.4005 19.3218 26.4986 19.3613 26.6179C19.4009 26.7367 21.7064 32.8594 21.7459 32.9612C21.7762 33.0389 21.8979 33.0453 21.9308 32.9612C21.9703 32.8594 24.2753 26.7367 24.3154 26.6179C24.3549 26.4991 24.4633 26.4005 24.6014 26.4005H26.2343C26.4889 26.4005 26.6076 26.5715 26.49 26.8922Z" fill="white"/>
<path id="Vector_7" d="M81.9089 28.1621C80.8927 28.1642 80.0409 29.0496 80.0388 30.1034V33.0393C80.0409 34.0941 80.8927 34.9779 81.9089 34.9795C82.9251 34.9774 83.7775 34.0941 83.7795 33.0393V30.1034C83.7775 29.0491 82.9256 28.1637 81.9089 28.1621Z" fill="white"/>
<path id="Vector_8" d="M66.8908 6.2124C63.1855 6.21933 60.0785 9.44663 60.0718 13.2882V36.4994C60.079 40.3463 63.1855 43.5688 66.8908 43.5752C70.5971 43.5683 73.7046 40.3463 73.7108 36.4994V13.2882C73.7041 9.44717 70.5966 6.2188 66.8908 6.2124ZM71.4746 36.6635C71.4125 36.7099 71.3344 36.729 71.2466 36.729H69.3308C69.2281 36.7264 69.129 36.672 69.0602 36.5746L66.2951 31.8726C66.2592 31.8018 66.2207 31.7847 66.1976 31.7853C66.1853 31.7842 66.1375 31.7959 66.0872 31.8497L65.2851 32.7048V36.4126C65.2851 36.5032 65.2666 36.5873 65.2076 36.6491C65.1485 36.7099 65.0679 36.729 64.9812 36.729H63.4571C63.3698 36.729 63.2887 36.7104 63.2286 36.6491C63.1696 36.5873 63.1516 36.5026 63.1516 36.4126V22.6419C63.1516 22.5514 63.1696 22.4672 63.2286 22.4054C63.2882 22.3441 63.3698 22.325 63.4571 22.325H64.9801C65.0669 22.325 65.148 22.3441 65.2076 22.4049C65.2666 22.4667 65.2856 22.5514 65.2851 22.6414V29.6831C65.2913 29.8078 65.336 29.836 65.394 29.8403C65.4371 29.8376 65.4428 29.8376 65.5034 29.7801L68.328 26.5559C68.4143 26.4403 68.5432 26.3876 68.6571 26.3865H70.4625C70.5509 26.3865 70.6294 26.4057 70.6915 26.4526C70.7542 26.4989 70.7912 26.5783 70.7896 26.6588C70.7804 26.8378 70.6494 26.9241 70.5524 27.0551L70.5498 27.0578L67.9357 29.8147C67.8351 29.925 67.8325 29.9569 67.8304 29.9995C67.832 30.0709 67.8417 30.1093 67.9254 30.2457L71.4053 36.069C71.4916 36.2064 71.5686 36.322 71.5727 36.4574C71.5742 36.5378 71.5362 36.6166 71.4741 36.6625L71.4746 36.6635Z" fill="white"/>
<path id="Vector_9" d="M81.9091 18.5493C78.2039 18.5562 75.0968 21.7835 75.0896 25.6251V33.3061C75.0968 37.1524 78.2039 40.3755 81.9091 40.3818C85.6154 40.3749 88.723 37.1524 88.7291 33.3061V25.6251C88.7225 21.7841 85.6149 18.5557 81.9091 18.5493ZM85.9137 33.0397C85.9137 34.1899 85.525 35.1754 84.8257 35.8712C84.1279 36.5669 83.125 36.9692 81.9107 36.9692H81.9096C80.6942 36.9692 79.6909 36.5669 78.9931 35.8712C78.2947 35.1754 77.905 34.1899 77.905 33.0397V30.1038C77.905 28.9531 78.2942 27.967 78.9931 27.2718C79.6914 26.5766 80.6942 26.1749 81.9096 26.1754C83.1245 26.1754 84.1279 26.5766 84.8257 27.2718C85.5245 27.967 85.9137 28.9531 85.9137 30.1038V33.0397Z" fill="white"/>
</g>
</g>
</svg>
