<?xml version="1.0" encoding="utf-8"?>
<!-- Generator: Adobe Illustrator 28.3.0, SVG Export Plug-In . SVG Version: 6.00 Build 0)  -->
<svg version="1.1" id="Calque_1" xmlns="http://www.w3.org/2000/svg" xmlns:xlink="http://www.w3.org/1999/xlink" x="0px" y="0px"
	 viewBox="0 0 509.2 401.5" style="enable-background:new 0 0 509.2 401.5;" xml:space="preserve">
<g>
	<path d="M458.7,248.4L458.7,248.4l-1.6,0c-1.3,0-2.4-1.1-2.4-2.4v-75.1c0-41.7-27.9-66.2-74.5-66.2c-35.9,0-60.4,14.4-70,39.8
		c0.1-1.4,0.1-2.8,0.1-4.2c0-28.8-15.9-35.5-35.5-35.5h-74.2c-17,0-31.3,12-34.7,28c-2.6-22.5-17.4-28-35.1-28H56.6
		c-19.6,0-35.5,15.9-35.5,35.5v146.2c0,18.6,15.9,31.6,35.5,31.6s35.5-13,35.5-31.6v-38.6c0-1.3,1.1-2.4,2.4-2.4h39.8
		c17.7,0,25.6-14.9,25.6-34c0-19.1-7.8-34-25.6-34h-4.5c-0.9,0-1.5-0.7-1.5-1.5c0-0.8,0.7-1.5,1.5-1.5h9.2c15.2,0,23.2-8.6,26-21.6
		v133.2c0,19.6,15.9,32.2,35.5,32.2h74.1c19.6,0,35.5-6.7,35.5-35.5c0-1.4,0-2.9-0.1-4.2c9.6,25.4,34.1,39.8,70,39.8h76.6
		c18.6,0,31.3-16.8,31.3-34.6C488.1,257,469.4,248.4,458.7,248.4z M306.3,261.8c-4.1-8.3-11.5-13.4-23.2-13.4h0h-9.2
		c-0.8,0-1.5-0.7-1.5-1.5c0-0.8,0.7-1.5,1.5-1.5h1.7c17.7,0,25.6-14.9,25.6-34s-7.8-34-25.6-34h-1.7c-0.8,0-1.5-0.7-1.5-1.5
		c0-0.8,0.7-1.5,1.5-1.5h9.2c11.7,0,19.2-5.1,23.2-13.4V261.8z"/>
	<path d="M205.6,65c2.7,0,5.4,0,7.8-0.1c7.8-0.3,13.2-4.2,14.9-10.2c0.6,2.6,1.7,4.8,3.2,6.4c3,3.3,7.4,4.6,11.8,4.6
		c5.4,0,9.3-1.6,12-4l-3.8-4.5c-1.9,1.5-4.4,2.3-7.2,2.3c-5.4,0-7.9-3.5-8.1-6.8h21.3V65h8V18.9h-8v27c-0.4-2.1-1.3-3.8-2.5-5.4
		c-2.4-3.2-6.4-5.3-11.8-5.3c-8.3,0-13.4,5.6-15,11.6c-1.4-4.2-5-7-8.8-8.2c2.9-2.1,4.4-5.1,4.4-8.6c0-3.2-1.3-6.1-3.6-8
		c-3.3-2.8-7.7-3.3-13.2-3.3h-10.8V65C199.4,65,202.5,65,205.6,65z M243.2,41.2c3.7,0,6.1,2.2,6.8,5.8h-13.7
		C237,43.6,239.5,41.2,243.2,41.2z M211.8,25.6c2.4,0.9,3.5,2.8,3.5,5.2c0,2-0.8,5.2-5,6.1c-0.7,0.1-1.7,0.2-3.2,0.2h-2.6V24.9h2.2
		C208.9,24.9,210.6,25.1,211.8,25.6z M204.5,43.3h5.2c1.6,0,3.5,0.2,4.6,0.5c3.6,1,5.7,3.6,5.7,7c0,3.5-1.9,6.6-6.5,7.4
		c-1,0.2-2.2,0.2-3.2,0.2h-5.8V43.3z"/>
	<rect x="270.8" y="18.9" width="7.8" height="46.2"/>
	<path d="M212.4,84.8c2.5,0,3.6-1.8,3.6-3.7c0-2.3-1.4-3.6-3.4-3.6c-2.1,0-3.3,1.3-3.3,3.2v7h1c0-2.8,0-3,0-3c0-0.3,0.2-0.3,0.4-0.2
		h0C211.3,84.7,211.8,84.8,212.4,84.8z M210.2,83.3v-2.5c0-1.4,0.7-2.4,2.3-2.4s2.5,1.1,2.5,2.7c0,1.6-0.8,2.9-2.6,2.9
		C211.7,84,211,83.8,210.2,83.3z"/>
	<path d="M217.8,79.1v5.6h0.9v-5.2c0-0.5,0.1-0.7,0.6-0.9c0.3-0.2,0.7-0.2,1.1-0.2c0.5,0,1.2,0.1,1.5,0.6l0.7-0.6l0,0
		c-0.5-0.7-1.4-0.9-2.2-0.9C219.5,77.5,217.8,77.9,217.8,79.1z"/>
	<polygon points="228.7,74.4 227.5,74.4 225.9,76.6 226.7,76.6 	"/>
	<path d="M230,80.6c-0.1-1.9-1.4-3.2-3.3-3.2c-2,0-3.4,1.6-3.4,3.7c0,2.1,1.3,3.7,3.6,3.7c1.2,0,2.1-0.3,2.9-1l-0.4-0.7
		c-0.7,0.5-1.5,0.8-2.4,0.8v0c-1.7,0-2.6-1.1-2.7-2.7h5.7C230,81.2,230,80.6,230,80.6z M224.3,80.5c0.2-1.2,1-2.2,2.4-2.2
		s2.1,0.9,2.3,2.2H224.3z"/>
	<path d="M234,84.1c-1.1,0-1.7-0.2-2-0.9l-0.8,0.4c0.5,1,1.6,1.3,2.8,1.3c2.3,0,2.9-0.8,2.9-2c0-1.4-1.2-1.9-2.5-2.3l0,0
		c-1.6-0.4-1.9-0.9-1.9-1.4c0-0.8,0.9-0.9,1.6-0.9c0.8,0,1.5,0.2,1.9,0.8l0.8-0.4c-0.5-1.1-1.7-1.2-2.6-1.2c-1.6,0-2.6,0.5-2.6,1.8
		s1,1.8,2.6,2.2c1.1,0.3,1.9,0.7,1.9,1.5C235.9,83.7,235.4,84.1,234,84.1z"/>
	<path d="M244.8,80.6c-0.1-1.9-1.4-3.2-3.3-3.2c-2,0-3.4,1.6-3.4,3.7c0,2.1,1.3,3.7,3.6,3.7c1.2,0,2.1-0.3,2.9-1l-0.4-0.7
		c-0.7,0.5-1.5,0.8-2.4,0.8v0c-1.7,0-2.6-1.1-2.7-2.7h5.7C244.8,81.2,244.8,80.6,244.8,80.6z M239.1,80.5c0.2-1.2,1-2.2,2.4-2.2
		s2.1,0.9,2.3,2.2H239.1z"/>
	<path d="M252.8,84.7v-4.5c0-1.8-1.2-2.6-3.1-2.6c-1,0-2.2,0.4-3,1v6.2h1V79c0.4-0.3,1.3-0.6,2-0.6c1.4,0,2.2,0.6,2.2,2h0v4.3H252.8
		z"/>
	<path d="M254.8,75.8L254.8,75.8l0,6.8c0,1.4,0.8,2.2,2.2,2.2c0.5,0,1.2-0.1,1.6-0.3v-0.8c-0.4,0.2-1,0.3-1.5,0.3
		c-0.9,0-1.4-0.5-1.4-1.4v-3.9h2.3v-0.9h-2.3v-1.9H254.8z"/>
	<path d="M262.9,77.5c-2,0-3.4,1.6-3.4,3.7c0,2.1,1.3,3.7,3.6,3.7c1.2,0,2.1-0.3,2.9-1l-0.4-0.7c-0.7,0.5-1.5,0.8-2.4,0.8l0,0
		c-1.7,0-2.6-1.1-2.7-2.7h5.7c0-0.1,0-0.7,0-0.7C266,78.8,264.8,77.5,262.9,77.5z M260.5,80.5c0.2-1.2,1-2.2,2.4-2.2
		s2.1,0.9,2.3,2.2H260.5z"/>
	<path d="M187.8,338v4.3c0,1.5,0.9,2.2,2.5,2.2c1.6,0,2.5-0.8,2.5-2.2V338H192v4.3c0,1-0.8,1.5-1.7,1.5c-0.9,0-1.7-0.5-1.7-1.5V338
		H187.8z"/>
	<path d="M195.7,338h-0.9v6.5h0.8v-3.7c0-0.2,0-1-0.1-1.7c0.2,0.5,0.6,1.2,0.8,1.5l2.4,3.9h0.9V338h-0.8v3.7c0,0.3,0,1.1,0,1.7
		c-0.3-0.5-0.5-1-0.8-1.5L195.7,338z"/>
	<polygon points="205.8,338.8 205.8,338 201.6,338 201.6,344.5 205.8,344.5 205.8,343.8 202.5,343.8 202.5,341.6 205.5,341.6 
		205.5,340.9 202.5,340.9 202.5,338.8 	"/>
	<path d="M212.6,338.6c1,0,1.7,0.7,1.9,1.5l0.9-0.2c-0.4-1.3-1.5-2-2.8-2c-2,0-3.1,1.4-3.1,3.4l0,0c0,2.2,1.1,3.3,3.1,3.3
		c1.4,0,2.3-0.7,2.9-1.8l-1-0.2c-0.2,0.7-0.8,1.4-1.9,1.4c-0.7,0-1.3-0.2-1.7-0.7c-0.3-0.4-0.5-1.1-0.5-1.9s0.2-1.5,0.5-1.9
		C211.3,338.9,211.9,338.6,212.6,338.6z"/>
	<path d="M222.6,341.3c0-2-1.1-3.4-3.1-3.4s-3.1,1.4-3.1,3.4c0,2.2,1.1,3.3,3.1,3.3C221.5,344.6,222.6,343.2,222.6,341.3z
		 M217.4,341.3c0-0.8,0.2-1.5,0.5-1.9c0.3-0.4,0.8-0.7,1.7-0.7c0.7,0,1.2,0.2,1.6,0.7c0.3,0.5,0.5,1.1,0.5,1.9
		c0,0.8-0.2,1.4-0.5,1.9c-0.3,0.5-0.8,0.7-1.6,0.7c-0.7,0-1.3-0.3-1.7-0.7C217.6,342.9,217.4,342.2,217.4,341.3z"/>
	<polygon points="224.1,338 224.1,344.5 228.3,344.5 228.3,343.8 224.9,343.8 224.9,338 	"/>
	<polygon points="229.5,338 229.5,344.5 233.7,344.5 233.7,343.8 230.4,343.8 230.4,338 	"/>
	<path d="M238.9,342.6l0.7,1.9h0.9L238,338h-0.9l-2.5,6.5h0.9l0.7-1.9H238.9z M237.1,339.9c0.2-0.4,0.2-0.7,0.4-1
		c0.1,0.3,0.2,0.7,0.4,1l0.7,2h-2.2L237.1,339.9z"/>
	<path d="M246.2,339.8c0-1.6-1.3-1.8-2.4-1.8h-2.3v6.5h2.3c1.2,0,2.6-0.1,2.6-1.8c0-0.8-0.3-1.3-1.1-1.5
		C245.9,340.9,246.2,340.4,246.2,339.8z M242.3,338.8h1.4c0.8,0,1.7,0,1.7,1c0,1-0.9,1-1.7,1h-1.3V338.8z M245.6,342.7
		c0,1.1-0.9,1.1-1.8,1.1h-1.5v-2.2h1.5C244.6,341.6,245.6,341.6,245.6,342.7z"/>
	<path d="M253.8,341.3c0-2-1.1-3.4-3.1-3.4s-3.1,1.4-3.1,3.4c0,2.2,1.1,3.3,3.1,3.3C252.7,344.6,253.8,343.2,253.8,341.3z
		 M249,343.2c-0.2-0.3-0.5-1-0.5-1.9c0-0.8,0.2-1.5,0.5-1.9c0.3-0.4,0.8-0.7,1.7-0.7c0.7,0,1.2,0.2,1.6,0.7c0.3,0.5,0.5,1.1,0.5,1.9
		c0,0.8-0.2,1.4-0.5,1.9c-0.3,0.5-0.8,0.7-1.6,0.7C250,343.9,249.4,343.6,249,343.2z"/>
	<path d="M259.9,342.9c0-0.7-0.2-1.1-0.8-1.4c0.6-0.2,1-0.8,1-1.6c0-1.8-1.4-1.9-2.5-1.9h-2.2v6.5h0.8v-2.7h1.4
		c1.1,0,1.5,0.3,1.5,1.2c0,0.9,0.1,1.2,0.3,1.5h0.9v0l0,0C259.9,344.1,259.9,343.6,259.9,342.9z M257.5,341.1h-1.3v-2.4h1.4
		c0.8,0,1.7,0,1.7,1.2C259.2,341.1,258.2,341.1,257.5,341.1z"/>
	<path d="M265.4,342.6l0.7,1.9h0.9l-2.5-6.5h-0.9l-2.5,6.5h0.9l0.7-1.9H265.4z M263.7,339.9c0.1-0.4,0.2-0.7,0.4-1
		c0.1,0.3,0.2,0.7,0.4,1l0.7,2H263L263.7,339.9z"/>
	<polygon points="269.8,344.5 269.8,338.8 271.9,338.8 271.9,338 266.8,338 266.8,338.8 268.9,338.8 268.9,338.8 268.9,344.5 	"/>
	<rect x="273.2" y="338" width="0.8" height="6.5"/>
	<path d="M278.7,337.9c-2,0-3.1,1.4-3.1,3.4c0,2.2,1.1,3.3,3.1,3.3c2,0,3.1-1.4,3.1-3.3S280.7,337.9,278.7,337.9z M280.3,343.2
		c-0.3,0.5-0.9,0.7-1.6,0.7c-0.7,0-1.3-0.3-1.7-0.7c-0.2-0.3-0.5-1-0.5-1.9c0-0.8,0.2-1.5,0.5-1.9c0.3-0.4,0.8-0.7,1.7-0.7
		c0.7,0,1.2,0.2,1.6,0.7c0.3,0.5,0.5,1.1,0.5,1.9C280.8,342.1,280.6,342.7,280.3,343.2z"/>
	<path d="M284.2,338h-0.9v6.5h0.8v-3.7c0-0.2,0-1,0-1.7c0.2,0.5,0.6,1.2,0.8,1.5l2.4,3.9h0.9V338h-0.8v3.7c0,0.3,0,1.1,0,1.7
		c-0.3-0.5-0.5-1-0.8-1.5L284.2,338z"/>
	<path d="M257.5,376.5c0,0-0.3,0-0.4,0c-0.7,0-1.7,0.5-2.7,1.2c0.1-0.6,0.2-1.4,0.2-2.1c0-1.5-0.4-3.3-0.7-4.9l0-0.2
		c-0.3-1.3-0.5-2.5-0.5-3.3c0-1.2,0.3-2,0.9-2.9v0l-1-0.7h0c-2.6,1.7-5.2,5.1-7.2,7.8c-3.6,4.9-5.6,7.2-7.3,7.2
		c-0.5,0-0.9-0.4-0.9-1c0-0.9,0.8-2.2,1.5-3.6c0.9-1.6,1.8-3.2,1.8-4.4c0-1.3-1-2.3-1.8-3.1c-0.8-0.8-1.4-1.5-1.4-2.3
		c0-0.2,0-0.4,0.1-0.6c0,0,0-0.1,0-0.1v0l-1.1-0.6v0c-1.5,3.1-3.6,5.5-5.7,6.5c-0.2-2.7-1.8-4.2-4.4-4.2c-2.7,0-5,1.7-6.5,3.1
		c-1.6,1.2-3.6,1.9-5.1,1.9c-0.1,0-0.2,0-0.2,0c0-0.2,0-0.4,0-0.5c0-2.8-1.7-4.5-4.4-4.5c-4,0-8.2,3.5-10.5,8.8
		c-2.8,3-5.9,4.6-9,4.6c-1.7,0-2.9-0.6-3.6-1.7c-0.6-0.8-0.8-2-0.8-3.4c0-3,1-6.1,2.9-9.1c0.9-0.1,2.2-0.4,3.4-0.8
		c-0.2,0.4-0.5,1.2-0.5,2c0,2.2,1.5,3.6,4,3.6c2.1,0,4.1-0.9,5.6-2.6c1.4-1.6,2.2-3.6,2.2-5.7c0-1.6-0.5-3-1.5-4
		c-1-1-2.6-1.6-4.5-1.6c-4.6,0-9.5,2.8-13.3,7.4c-1.6-0.4-2.5-1.3-2.5-2.6c0-1,0.7-1.7,1.8-1.7c0,0,0.1,0,0.2,0h0.1l0,0
		c-0.2-0.2-1-1-2.3-1c-2.1,0-3.1,1.4-3.1,2.9c0,1.5,1.2,3.4,4.7,4c-2.4,3.5-3.7,7.2-3.7,10.4c0,5.2,2.8,8.1,7.7,8.1
		c5.5,0,9.5-3.5,11.5-5.7c0,0.2,0,0.4,0,0.6c0,2.5,1.5,5.1,4.8,5.1c5.3,0,9.4-5.7,10.5-11.1c0,0,0,0,0.1,0c1,0,2.2-0.3,3.2-0.7
		c-1.4,2.2-2.3,4.8-2.3,6.8c0,1.4,0.4,2.6,1.2,3.5c0.8,1,2.1,1.5,3.6,1.5c3.3,0,5.7-2.2,7.2-4c1.7-2.1,3-5.1,3.4-7.9
		c1.8-0.6,3.7-2.2,5.1-4.3c0.1,0.1,0.1,0.2,0.2,0.3c0.1,0.1,0.2,0.3,0.3,0.4c0.5,0.6,0.9,1.2,0.9,1.8c0,0.9-1,2.2-2.1,3.7
		c-1.5,2-3.1,4.3-3.2,6.4c0,1,0.3,2,0.9,2.6c0.6,0.6,1.5,1,2.5,1c4.2,0,7-4.1,9.5-7.7l0-0.1c0.3-0.4,0.6-0.8,0.9-1.2
		c0.2-0.3,0.5-0.7,0.7-1.1l0-0.1c0.1-0.1,0.2-0.3,0.3-0.4c1.2-1.8,2.7-4,4.1-5.4c-0.2,1.1-0.3,2.8-0.4,4.1c0,1.9-0.1,3.9-0.6,5.5
		c-0.3,1-1,2.1-2.4,2.1c-0.4,0-0.7-0.1-0.9-0.4c-0.3-0.3-0.4-0.7-0.4-1.2c0-0.5,0.2-1.1,0.5-1.5l0,0h0c-1.5,0.3-3,1.8-3,3.7
		c0,2.2,1.6,3.6,4.1,3.6c1.2,0,2.3-0.3,3.2-0.8c0.9-0.5,1.7-1.3,2.2-2.2c0.7-0.5,1.6-0.9,2.6-0.9c0.3,0,0.4,0,0.4,0h0L257.5,376.5
		L257.5,376.5L257.5,376.5z M198.8,357.5c2.1,0,3.4,1.3,3.4,3.3c0,2.7-2,5-4.4,5v0c-1.2,0-1.9-0.8-1.9-2c0-1.6,1.3-3,1.5-3.2
		l0.1-0.1l-0.1,0c-2.1,0.9-4.9,1.8-6.5,2.1C192.7,360.3,195.8,357.5,198.8,357.5z M206.4,378.7L206.4,378.7c-1.8,0-2-1.8-2-2.6
		c0-3.5,3-9,6.6-9c0.2,0,0.4,0,0.6,0.1c-0.4,0.5-0.6,1.1-0.6,1.7c0,1.3,0.9,2.2,1.7,2.5C212.1,374.3,209.6,378.7,206.4,378.7z
		 M222.7,378.7L222.7,378.7c-1.3,0-2.1-1-2.1-2.6c0-1.6,0.8-4,2-5.8c1.3-2,3-3.2,4.6-3.2c0.2,0,0.4,0,0.6,0.1
		c-0.4,0.5-0.5,1-0.5,1.6c0,1.1,0.7,2,1.8,2.3C228.4,374.2,226,378.7,222.7,378.7z"/>
	<rect x="275.6" y="365.4" width="3.8" height="16.9"/>
	<polygon points="266,365.4 262.2,365.4 262.2,382.4 270.5,382.4 272.6,378.7 266,378.7 	"/>
	<polygon points="312.8,372.1 305.9,372.1 305.9,365.4 302.1,365.4 302.1,382.4 305.9,382.4 305.9,375.7 312.8,375.7 312.8,382.4 
		316.6,382.4 316.6,365.4 312.8,365.4 	"/>
	<polygon points="320.4,369 323.9,369 323.9,382.4 327.7,382.4 327.7,369 330,369 332.2,365.4 320.4,365.4 	"/>
	<path d="M297.6,372.3h-4.2l-2,3.3h2.9v2.7c-0.7,0.3-1.5,0.4-2.2,0.4c-2.6,0-4.8-2.2-4.8-4.8c0-2.6,2.1-4.9,4.8-4.9
		c1,0,1.9,0.2,2.7,0.8l1.9-3.1c-1.5-0.9-3.2-1.5-4.8-1.5c-4.8,0-8.7,3.9-8.7,8.7c0,4.8,3.9,8.6,8.7,8.6c3.5,0,6-1.6,6-1.6
		c0.1-0.1,0.2-0.3,0.2-0.4l0-7.9C298,372.5,297.8,372.3,297.6,372.3z"/>
	<polygon points="165.1,369.1 159.2,360.4 144.4,382.1 178.9,382.1 167.5,365.6 	"/>
	<path d="M330.5,381.4c0-0.1-0.1-0.2-0.2-0.2h-0.3c0,0,0,0,0,0v0.7c0,0,0,0,0,0h0.1c0,0,0,0,0,0v-0.3h0.1l0.2,0.3h0h0.2c0,0,0,0,0,0
		l-0.1-0.3C330.4,381.6,330.5,381.5,330.5,381.4z M330.2,381.5H330v-0.2h0.2C330.2,381.3,330.3,381.4,330.2,381.5
		C330.3,381.4,330.2,381.5,330.2,381.5z"/>
	<path d="M330.1,380.7c-0.5,0-0.8,0.4-0.8,0.8s0.4,0.8,0.8,0.8s0.8-0.4,0.8-0.8S330.6,380.7,330.1,380.7z M330.1,382.2
		c-0.4,0-0.6-0.3-0.6-0.6c0-0.4,0.3-0.6,0.6-0.6c0.3,0,0.6,0.3,0.6,0.6C330.8,381.9,330.5,382.2,330.1,382.2z"/>
</g>
</svg>
