<?xml version="1.0" encoding="utf-8"?>
<!-- Generator: Adobe Illustrator 14.0.0, SVG Export Plug-In . SVG Version: 6.00 Build 43363)  -->
<!DOCTYPE svg PUBLIC "-//W3C//DTD SVG 1.1//EN" "http://www.w3.org/Graphics/SVG/1.1/DTD/svg11.dtd">
<svg version="1.1" id="Layer_1" xmlns="http://www.w3.org/2000/svg" xmlns:xlink="http://www.w3.org/1999/xlink" x="0px" y="0px"
	 width="250px" height="57px" viewBox="0 0 250 57" enable-background="new 0 0 250 57" xml:space="preserve">
<g>
	<path fill="#EB1C3C" d="M243.966,18.759c-0.571-3.592-3.991-6.917-8.107-7.643c0,0-33.874-6.01-111.256-6.01
		c-77.367,0-111.254,6.01-111.254,6.01c-3.604,0.637-6.007,3.255-6.832,6.299v-0.022C5.781,18.209,3.464,32.62,6.595,39.849
		c0.901,2.926,3.256,5.416,6.753,6.024c0,0,33.887,6.021,111.254,6.021c77.382,0,111.256-6.021,111.256-6.021
		c3.654-0.638,6.753-3.314,7.822-6.412v0.007C244.237,38.714,246.178,26.317,243.966,18.759"/>
	<polyline fill="#FFFFFF" points="21.751,42.522 21.751,14.603 28.233,14.603 28.233,36.619 39.435,36.619 39.435,42.522 	"/>
	<path fill="#FFFFFF" d="M56.596,25.805l-2.771,6.705h5.522 M63.495,42.522l-2.093-5.058h-9.631l-2.093,5.058h-6.599l13.139-28.151
		h0.872l13.142,28.151H63.495z"/>
	<path fill="#FFFFFF" d="M94.156,20.465c-0.833,0-1.366,0.041-2.364,0.154v7.958c0.93,0.041,1.307,0.088,1.908,0.088
		c3.432,0,5.146-1.494,5.146-4.196C98.845,22.22,97.364,20.465,94.156,20.465 M94.156,34.257c-0.91,0-1.472-0.04-2.364-0.077v8.343
		H85.29V14.866c2.858-0.312,5.445-0.458,7.762-0.458c8.081,0,12.413,4.303,12.413,9.943C105.464,30.107,101.55,34.257,94.156,34.257
		"/>
	<path fill="#FFFFFF" d="M121.211,20.206c-0.998,0-1.599,0.037-2.531,0.194v7.683l2.065,0.117c3.091,0,5.078-1.483,5.078-4.303
		C125.824,21.571,123.981,20.206,121.211,20.206 M126.957,42.522l-4.757-9.101l-1.106,0.04c-0.949,0-1.481-0.04-2.414-0.077v9.138
		h-6.461V14.866c2.354-0.264,4.951-0.458,8.227-0.458c8.692,0,12.113,4.16,12.113,9.254c0,3.314-1.795,6.292-4.807,8.082
		l6.564,10.778H126.957z"/>
	<polyline fill="#FFFFFF" points="140.029,42.522 140.029,14.603 157.71,14.603 157.71,20.542 146.504,20.542 146.504,25.534 
		156.706,25.534 156.706,31.173 146.504,31.173 146.504,36.619 157.71,36.619 157.71,42.522 	"/>
	<path fill="#FFFFFF" d="M173.017,42.977c-3.171,0-6.979-1.249-9.411-2.856l1.787-5.863c2.256,1.637,5.186,2.714,7.808,2.714
		c2.285,0,3.171-1.077,3.171-2.443c0-1.453-0.732-2.442-4.995-4.148c-4.907-1.985-6.628-4.845-6.628-8.196
		c0-4.08,3.317-8.046,9.836-8.046c3.047,0,6.167,1.077,7.801,2.183l-1.634,5.783c-1.604-1.103-4.196-2.285-6.167-2.285
		c-2.373,0-3.325,1.106-3.325,2.256c0,1.824,1.406,2.442,4.93,3.915c5.2,2.212,6.768,4.731,6.768,8.305
		C182.956,38.754,179.711,42.977,173.017,42.977"/>
	<path fill="#FFFFFF" d="M197.084,42.977c-3.164,0-6.965-1.249-9.404-2.856l1.787-5.863c2.249,1.637,5.186,2.714,7.815,2.714
		c2.285,0,3.156-1.077,3.156-2.443c0-1.453-0.725-2.442-4.987-4.148c-4.915-1.985-6.629-4.845-6.629-8.196
		c0-4.08,3.311-8.046,9.837-8.046c3.039,0,6.167,1.077,7.808,2.183l-1.641,5.783c-1.604-1.103-4.189-2.285-6.167-2.285
		c-2.366,0-3.325,1.106-3.325,2.256c0,1.824,1.413,2.442,4.922,3.915c5.215,2.212,6.774,4.731,6.774,8.305
		C207.03,38.754,203.793,42.977,197.084,42.977"/>
	<polyline fill="#FFFFFF" points="213.314,42.522 213.314,14.603 230.995,14.603 230.995,20.542 219.804,20.542 219.804,25.534 
		230.014,25.534 230.014,31.173 219.804,31.173 219.804,36.619 230.995,36.619 230.995,42.522 	"/>
</g>
</svg>
