<svg class="c-svgIcon__svg" preserveaspectratio="xMidYMid meet" role="presentation" style="height: 50px; width: 105px;" viewBox="0 0 156.9 75.02" width="100%" xmlns="http://www.w3.org/2000/svg">
<g>
<polygon points="53.5 9.36 50.52 0.45 46.58 0.45 51.93 14.15 55.02 14.15 60.38 0.45 56.51 0.45 53.5 9.36"></polygon>
<path d="M22.4,0a7.27,7.27,0,1,0,7.27,7.27A7.28,7.28,0,0,0,22.4,0Zm0,11.14a3.87,3.87,0,1,1,3.87-3.87A3.87,3.87,0,0,1,22.4,11.14Z"></path>
<path d="M39,0a7.27,7.27,0,1,0,7.27,7.27A7.28,7.28,0,0,0,39,0Zm0,11.14a3.87,3.87,0,1,1,3.87-3.87A3.87,3.87,0,0,1,39,11.14Z"></path>
<path d="M68,0a7.27,7.27,0,1,0,7.27,7.27A7.28,7.28,0,0,0,68,0Zm0,11.14A3.87,3.87,0,1,1,71.9,7.27,3.87,3.87,0,0,1,68,11.14Z"></path>
<path d="M5.53.44H0V14.15H3.9V3.7H6.39c1.29,0,2.83.62,2.83,3.57v6.89H13V7.57C13,1.25,8.73.46,5.53.44Z"></path>
<path d="M77,74.46H91.28V38.18h10.08V23.72h-10c.55-7.51,4.39-9.59,10-9.59h3.54V.45h-.37C93.24.5,78.42,3.2,77.07,23.72H71.33V38.18H77Z"></path>
<path d="M131,23.15A25.94,25.94,0,1,0,156.9,49.09,26,26,0,0,0,131,23.15Zm0,38.61a12.68,12.68,0,1,1,12.67-12.67A12.69,12.69,0,0,1,131,61.76Z"></path>
<path d="M29.55,52.21a7,7,0,0,0-7-7H15.25V74.46h14.3Z"></path>
<path d="M66,74.46V50.08c0-23.36-15.73-26.31-27.56-26.36H36.69l0,14.3h4.88c6.09,0,10.08,2.43,10.08,11.54V74.46Z"></path>
<circle cx="22.4" cy="30.87" r="7.15"></circle>
</g>
</svg>