<svg fill="none" height="24" viewBox="0 0 126 24" width="126" xmlns="http://www.w3.org/2000/svg">
    <path class="fill-brand" d="m24 0h-24v24h24z" fill="#ffd200"></path>
    <path fill="#000000" d="m6.48316 6.15923 11.61024 5.77337-11.62419 5.9073 7.47669-5.8895z"></path>
    <g class="fill-neutral">
        <path fill="#000000" d="m36.9601 17.6191h-2.3302l-3.7384-11.34127h2.1242l2.7898 8.78087 2.8068-8.78087h2.104z"></path>
        <path fill="#000000" d="m43.1411 17.6191v-11.34127h1.9916v11.34127z"></path>
        <path fill="#000000" d="m56.0385 15.9499c-.3915.5168-.8657.9653-1.4035 1.3275-.3465.2037-.737.3209-1.1384.3417h-5.1967v-11.34127h5.1967c.4072.00345.8061.11468 1.1563.32238.5202.39248.9805.85874 1.3662 1.38405.2149.31794.3212.69691.303 1.08027v5.80437c.0137.3803-.085.7563-.2836 1.081zm-2.6744-.2278s.1139 0 .1325-.0186c.2659-.155.8347-.6448.8347-.8726v-5.70825c0-.03243-.0064-.06454-.0186-.09454-.2067-.34174-.4931-.62837-.8347-.8354-.0552-.01657-.113-.02287-.1704-.01859h-3.0153v7.54868z"></path>
        <path fill="#000000" d="m59.4877 17.6191v-11.34127h7.1295v1.89629h-5.1402v2.86728h4.7783v1.8963h-4.7791v2.7898h5.1402v1.8971z"></path>
        <path fill="#000000" d="m77.8648 16.0072c-.3986.5147-.8641.9739-1.3841 1.3655-.3566.212-.7616.3294-1.1763.341h-2.8828c-.4152-.0088-.8209-.1264-1.1764-.341-.5247-.3862-.9908-.8461-1.3841-1.3655-.2077-.323-.3135-.701-.3037-1.0849v-5.93605c-.0091-.38237.0967-.75868.3037-1.08027.3931-.51954.8593-.97945 1.3841-1.36545.3555-.21488.7611-.33272 1.1764-.34175h2.8828c.4148.01184.8197.12947 1.1763.34175.5202.39143.9856.85065 1.3841 1.36545.2068.32166.3123.69797.303 1.08027v5.93605c.01.3839-.0955.7619-.303 1.0849zm-6.3151-1.1004s.0001.0566.0187.0775c.2228.3232.5062.6001.8346.8152.0296.0136.062.0199.0945.0186h2.7309c.0324-.0001.0645-.0064.0946-.0186.3285-.2149.612-.4918.8346-.8152.0116-.0242.0179-.0506.0186-.0775v-5.86011s0-.07749-.0186-.09454c-.2229-.32876-.5061-.61224-.8346-.83539-.0297-.01333-.0621-.0197-.0946-.0186h-2.7309s-.0775.00001-.0945.0186c-.3285.22332-.6116.50677-.8346.83539-.0121.03006-.0185.06214-.0187.09454z"></path>
        <path fill="#000000" d="m85.0702 8.17412v9.44498h-1.9916v-9.44498h-3.0719v-1.89629h8.1369v1.89629z"></path>
        <path fill="#000000" d="m98.3706 11.721c-.3026.373-.6459.711-1.0237 1.0075-.1496.1138-.3162.2032-.4937.265l2.2566 4.6256h-2.162l-2.1048-4.4729h-2.1807v4.476h-1.9916v-11.34437h5.3293c.4801.00434.9483.14929 1.3469.41692.3786.30894.7219.65875 1.0237 1.04307.2239.34425.3427.74631.3417 1.157v1.66848c.0038.4113-.1152.8144-.3417 1.1577zm-1.6491-2.80681c.0008-.04494-.0058-.0897-.0194-.13252-.1131-.20846-.4169-.58818-.606-.60755h-3.433v3.07268h3.3377c.1705 0 .5502-.3604.7013-.6254.012-.0242.0186-.0506.0194-.0775z"></path>
        <path fill="#000000" d="m109.964 16.0072c-.398.5148-.863.9741-1.384 1.3655-.356.212-.761.3294-1.176.341h-2.883c-.415-.0088-.821-.1264-1.176-.341-.525-.386-.991-.8459-1.384-1.3655-.208-.323-.314-.701-.304-1.0849v-5.93605c-.009-.38237.097-.75868.304-1.08027.393-.51969.859-.97963 1.384-1.36545.355-.21488.761-.33272 1.176-.34175h2.883c.415.01184.82.12947 1.176.34175.521.39126.986.8505 1.384 1.36545.207.32159.313.6979.304 1.08027v5.93605c.01.3839-.096.7619-.304 1.0849zm-6.315-1.1004s0 .0566.019.0775c.223.3232.506.6.834.8152.03.0137.062.02.095.0186h2.731c.033 0 .065-.0063.095-.0186.328-.2149.612-.4918.834-.8152.012-.0242.018-.0506.019-.0775v-5.86011s0-.07749-.019-.09454c-.223-.32876-.506-.61224-.834-.83539-.03-.01338-.062-.01975-.095-.0186h-2.731s-.077.00001-.095.0186c-.328.22337-.611.50682-.834.83539-.012.03001-.019.06212-.019.09454z"></path>
        <path fill="#000000" d="m119.149 17.6191-3.926-7.5293v7.5293h-1.991v-11.34127h2.143l3.888 7.62387v-7.62387h1.991v11.34127z"></path>
    </g>
</svg>